PathFileType	4	(X/Y/Z)	Patient4_TMGait_0pt6_02_left_12.trc.trc
DataRate	CameraRate	NumFrames	NumMarkers	Units	OrigDataRate	OrigDataStartFrame	OrigNumFrames
79.096045197740	79.096045197740	4	33	mm	79.096045197740	71	       141
Frame#	Time	Sacral			L.Shoulder			Chest			R.Shoulder			Neck			R.ASIS			L.ASIS			R.Thigh.Superior			R.Thigh.Lateral			R.Thigh.Inferior			R.Patella			L.Thigh.Superior			L.Thigh.Lateral			L.Thigh.Inferior			L.Patella			L.Shank.Superior			L.Shank.Lateral			L.Shank.Inferior			R.Shank.Superior			R.Shank.Lateral			R.Shank.Inferior			R.Heel			R.Midfoot.Superior			R.Midfoot.Lateral			R.Toe			L.Heel			L.Midfoot.Lateral			L.Midfoot.Superior			L.Toe			L.Elbow			L.Wrist			R.Elbow			R.Wrist			
		X1	Y1	Z1	X2	Y2	Z2	X3	Y3	Z3	X4	Y4	Z4	X5	Y5	Z5	X6	Y6	Z6	X7	Y7	Z7	X8	Y8	Z8	X9	Y9	Z9	X10	Y10	Z10	X11	Y11	Z11	X12	Y12	Z12	X13	Y13	Z13	X14	Y14	Z14	X15	Y15	Z15	X16	Y16	Z16	X17	Y17	Z17	X18	Y18	Z18	X19	Y19	Z19	X20	Y20	Z20	X21	Y21	Z21	X22	Y22	Z22	X23	Y23	Z23	X24	Y24	Z24	X25	Y25	Z25	X26	Y26	Z26	X27	Y27	Z27	X28	Y28	Z28	X29	Y29	Z29	X30	Y30	Z30	X31	Y31	Z31	X32	Y32	Z32	X33	Y33	Z33	

71	15.595000000000	725.517251779436	1002.070281035649	423.137830915914	917.260886250573	1430.160444931058	249.519886412060	1009.654965787733	1358.799061354266	415.449337452459	916.755236964736	1434.974248849276	582.649080931891	907.490374583226	1490.205793440831	399.951415292417	947.484346847213	941.581715368762	552.806479544048	949.945577858931	957.333839085417	276.244980476342	1022.783263915886	768.521762470867	529.159117220107	979.548279344027	647.558910248271	604.873116528865	1068.778555925157	608.887666224088	525.365292313815	1103.694168282007	526.977828827166	544.454606160998	947.217648237809	728.512795555416	309.469426787188	829.611630844649	634.274129951813	247.910899870685	888.076757536288	540.730684581544	313.444855630660	872.990430056425	474.137090534010	324.040936457662	839.086910713831	409.119119079521	317.591774504353	736.214279309429	305.350548410085	269.234846654041	771.302751930583	190.455447377239	344.245738198684	1088.267433931623	439.930831260532	555.075081132389	1036.716232677914	325.628160011124	618.448210030529	1108.610364075023	240.794416029176	568.530470197999	1021.002926865430	51.007877183183	539.903051880741	1181.242324257551	127.404932767859	579.419457838306	1105.315296576076	50.488787330285	613.945965093236	1307.103220120579	94.290343816402	607.485293376995	629.352052127842	41.987410208880	388.736546406244	703.806590114528	36.286399477384	309.580918181858	787.811410552069	95.365807812549	335.818240997755	915.549621114513	39.631716281683	308.839937559213	904.675068810313	1091.065664427218	102.366396310160	1144.055079140727	997.296246535762	106.362862958523	768.920611791143	1122.521428169260	691.798234461413	725.618884504780	865.936439700830	707.729335944844	
72	15.607642857143	727.173736391284	1000.268870815292	424.643256739443	917.739821242082	1428.811604575554	251.278785643001	1010.247655287011	1357.598758058033	417.200735687887	917.138057649420	1433.670465282274	584.327027143863	907.901796355123	1488.770739878252	401.669184508288	949.210661548455	939.739761268012	554.295193463049	951.900698405150	956.052177942237	277.579563169132	1022.923413754644	764.745570338336	530.923696148056	976.911962414767	643.766227738691	605.278811357330	1066.196128379073	604.734530746857	526.162170512193	1099.927565546909	523.834197798678	544.248980030331	946.829342562981	726.870324907021	310.564578736934	828.271365933257	633.759254881661	248.669376671171	885.589808288832	539.554248590603	314.298406345502	870.049069437658	472.817117588045	324.628524722068	835.153274314961	408.226910833024	318.098836169234	731.171700338320	305.652111130447	269.406784942863	764.902372698013	190.264177906347	344.246329233932	1086.198422487129	436.787896864702	554.533946181385	1036.060517669719	321.118333807375	616.423444807602	1110.121154646781	237.957651086848	566.585749433653	1025.966784640462	47.435895464627	536.198269879827	1185.291785542435	125.338146068015	576.931858299762	1109.742196634932	47.940356323380	610.813190483626	1311.190047214444	93.266730798875	605.656611403937	621.733398391334	42.617957133073	388.513914439155	696.250516339792	36.496668984770	309.469608563875	780.362490898530	95.444703174365	335.696082345807	907.944655945930	39.448293951599	308.839586528113	907.331360463863	1089.892050582414	103.804329401738	1149.188957851518	1003.534935212208	107.882202620010	764.368313022793	1124.338698005449	692.904411632382	715.928399363317	868.708763218316	708.954005543942	
73	15.620285714286	728.998497251800	998.456189742684	426.379785891989	918.220703978311	1427.439694558874	253.193667125547	1010.874064045815	1356.459356044569	419.129232659886	917.498774694408	1432.383590810528	586.190347953595	908.287647690272	1487.354117064763	403.548176288164	951.090840867246	937.886187022464	555.986290476953	953.902813608360	954.711440142922	279.186407863826	1023.532843090168	761.256807517009	532.806985149958	974.763738616768	640.151095003584	605.459990999961	1064.264117312534	601.002964150445	526.908273781822	1096.631166959064	520.682505173479	543.917547285219	946.954987606795	725.287986464590	311.732304186559	827.511758536736	633.201111548817	249.583371065244	883.819779008827	538.349625806092	315.238918397850	867.821565197459	471.362965953666	325.311031033748	831.802909854553	407.208964306649	318.675957571634	726.547400392998	306.041466221069	269.603977546193	758.713153175102	190.095596750568	344.197728497289	1084.027307803219	433.423678806985	553.758260568032	1034.314684460107	316.842415305900	614.025161101539	1109.745124458836	234.818765851780	564.289628728507	1027.235358391625	44.833834320119	532.270744827930	1186.432361060657	122.486668218090	573.955093949625	1110.475525772830	45.592935183561	607.374594226204	1311.928647951749	90.105786247210	603.157836544123	614.117615872254	43.440556904987	388.213195759020	688.711001125231	36.739636686495	309.305967547961	772.985895448275	95.562432120950	335.476487135099	900.373671884488	39.262243300015	308.817158526621	909.738622521119	1088.638679000970	105.478677350619	1153.648193971070	1009.054162087869	109.556026607685	760.850294669412	1125.672291916316	694.292566091651	708.244506956602	870.842422748763	710.175748149518	
74	15.632928571429	730.981507697605	996.701790457600	428.336145420604	918.737245162528	1426.085946596480	255.262724428511	1011.557109688596	1355.414803487080	421.237409869037	917.861517569196	1431.154974090244	588.234866491608	908.684015834505	1486.009297962024	405.585777462246	953.102798824430	936.078438012608	557.878500115698	955.930916198840	953.371104102138	281.062106306591	1024.588660640357	758.117890311368	534.793350421587	973.102522121907	636.806054651854	605.448831087254	1062.977809864188	597.768036516577	527.617932721314	1093.830617476905	517.608136549943	543.455280831490	947.595153185229	723.813224970597	312.948807629349	827.336658827582	632.619017272076	250.654612467213	882.817147952883	537.140563822664	316.236815092845	866.359492187625	469.787852239821	326.048006849910	829.079546565121	406.085894260290	319.297508652893	722.362350290730	306.559749817324	269.835367671780	752.765560646314	189.982500980154	344.087546005131	1081.852275352323	429.950668693736	552.796648155695	1031.753440306736	312.864001898529	611.467250810408	1107.773255569605	231.441549264713	561.777991855014	1025.216776647469	43.035201666401	528.412003088920	1185.023603623645	118.989747192844	570.646156824916	1108.005015748672	43.451359817732	603.883196994704	1309.811901696574	85.159959572303	600.111299719679	606.519290121326	44.514272694425	387.832836405657	681.192132460673	37.033656574113	309.090281905693	765.713506507334	95.718605819819	335.139130786686	892.841917734786	39.082572272652	308.770630365447	911.883726033396	1087.329868910284	107.399966863824	1157.450238748940	1013.763489179475	111.379992315224	758.406009490428	1126.463873842704	695.937582357417	702.577671226843	872.246716581809	711.434403212724	
